<svg width="1920" height="1080" viewBox="0 0 1920 1080" fill="none" xmlns="http://www.w3.org/2000/svg">
<g clip-path="url(#clip0_108_1758)">
<rect width="1920" height="1080" fill="white"/>
<path d="M995.948 357.635L1032.8 901.852L1127.94 849.278L1094.45 354.836L995.948 357.635Z" fill="#EFEFED"/>
<path d="M909.454 360.099L949.259 948.04L1032.8 901.853L995.948 357.636L909.454 360.099Z" fill="#EF303F"/>
<path d="M1399.91 326.881L1304.2 337.172L1340.86 878.346L1439.73 914.822L1399.91 326.881Z" fill="#EF303F"/>
<path d="M1206.21 347.709L1239.62 841L1340.86 878.348L1304.2 337.174L1206.21 347.709Z" fill="#EFEFED"/>
<path d="M1156.34 353.065L1094.45 354.835L1127.94 849.278L1181.6 819.608L1239.62 840.999L1206.21 347.707L1156.34 353.065Z" fill="#EF303F"/>
<path d="M1439.73 914.823C1417.42 909.033 1395.58 901.985 1373.49 895.63C1351.59 888.787 1329.71 881.835 1307.96 874.533C1264.4 860.126 1221.24 844.683 1178.17 828.885L1186.4 828.273C1147.58 849.495 1108.63 870.502 1069.15 890.531C1049.47 900.649 1029.59 910.428 1009.66 920.123C989.524 929.416 969.696 939.274 949.259 948.04C967.559 935.407 986.454 923.858 1005.04 911.754C1023.84 900.025 1042.69 888.396 1061.74 877.127C1099.69 854.34 1138.19 832.536 1176.82 810.964L1180.77 808.756L1185.03 810.341C1228.01 826.286 1270.89 842.585 1313.36 859.909C1334.63 868.474 1355.79 877.396 1376.9 886.42C1397.82 895.915 1419 904.748 1439.73 914.823Z" fill="#1E284E"/>
<path d="M243.019 263.808L152.014 232.404L-44.958 737.805L29.0183 812.855L243.019 263.808Z" fill="#EF303F"/>
<path d="M58.859 200.273L-120.7 660.966L-44.9581 737.806L152.014 232.405L58.859 200.273Z" fill="#EFEFED"/>
<path d="M11.441 183.921L-45.3163 159.194L-225.293 620.945L-164.096 616.913L-120.699 660.966L58.8592 200.273L11.441 183.921Z" fill="#EF303F"/>
<path d="M29.0191 812.855C11.3105 798.141 -5.47974 782.476 -22.7569 767.328C-39.6743 751.817 -56.5173 736.21 -73.0912 720.371C-106.392 688.803 -138.9 656.448 -171.149 623.865L-163.451 626.787C-207.619 629.492 -251.799 631.944 -296.045 633.264C-318.173 634.078 -340.31 634.469 -362.463 634.755C-384.636 634.617 -406.774 635.109 -429 634.348C-407.063 630.697 -385.059 628.277 -363.091 625.218C-341.086 622.608 -319.082 620.093 -297.05 617.996C-253.019 613.505 -208.887 610.15 -164.756 607.054L-160.238 606.732L-157.059 609.966C-124.936 642.695 -93.0774 675.669 -61.9964 709.413C-46.3734 726.225 -31.0412 743.279 -15.7671 760.418C-0.856852 777.932 14.543 794.934 29.0191 812.855Z" fill="#1E284E"/>
<path d="M416.702 303.523L342.017 843.857L445.863 811.734L513.733 320.831L416.702 303.523Z" fill="#2A3D87"/>
<path d="M331.531 288.335L250.828 872.072L342.017 843.858L416.702 303.524L331.531 288.335Z" fill="#2A3D87"/>
<path d="M818.483 355.647L722.684 346.234L648.39 883.55L737.778 939.394L818.483 355.647Z" fill="#2A3D87"/>
<path d="M624.612 336.602L556.891 826.381L648.39 883.551L722.684 346.234L624.612 336.602Z" fill="#2A3D87"/>
<path d="M574.677 331.711L513.733 320.832L445.863 811.736L504.441 793.636L556.892 826.382L624.613 336.603L574.677 331.711Z" fill="#2A3D87"/>
<path d="M435.448 339.863L443.739 366.4L470.303 374.621L447.634 390.703L448.027 418.515L425.71 401.919L399.39 410.885L408.276 384.522L391.626 362.263L419.434 362.575L435.448 339.863Z" fill="#EFEFED"/>
<path d="M530.098 354.704L538.403 381.252L564.953 389.473L542.284 405.556L542.677 433.366L520.374 416.767L494.04 425.738L502.926 399.39L486.276 377.126L514.084 377.438L530.098 354.704Z" fill="#EFEFED"/>
<path d="M624.748 369.567L633.053 396.114L659.603 404.325L636.934 420.423L637.327 448.213L615.023 431.618L588.69 440.589L597.576 414.242L580.913 391.978L608.734 392.3L624.748 369.567Z" fill="#EFEFED"/>
<path d="M719.398 384.428L727.702 410.966L754.252 419.192L731.584 435.275L731.976 463.08L709.66 446.486L683.34 455.452L692.239 429.092L675.562 406.839L703.384 407.141L719.398 384.428Z" fill="#EFEFED"/>
<path d="M421.856 426.45L430.16 453.004L456.71 461.214L434.042 477.308L434.434 505.102L412.131 488.508L385.797 497.474L394.697 471.125L378.034 448.861L405.842 449.19L421.856 426.45Z" fill="#EFEFED"/>
<path d="M516.505 441.318L524.81 467.856L551.36 476.062L528.692 492.144L529.084 519.966L506.781 503.371L480.447 512.337L489.347 485.979L472.684 463.715L500.492 464.026L516.505 441.318Z" fill="#EFEFED"/>
<path d="M611.154 456.153L619.459 482.702L646.022 490.928L623.34 507.01L623.733 534.816L601.43 518.205L575.096 527.177L583.995 500.839L567.332 478.58L595.14 478.893L611.154 456.153Z" fill="#EFEFED"/>
<path d="M705.804 471.02L714.109 497.568L740.672 505.778L717.99 521.872L718.383 549.667L696.079 533.072L669.746 542.038L678.645 515.691L661.969 493.427L689.79 493.754L705.804 471.02Z" fill="#EFEFED"/>
<path d="M408.263 513.044L416.568 539.591L443.131 547.813L420.449 563.895L420.842 591.707L398.538 575.095L372.205 584.061L381.104 557.714L364.441 535.466L392.249 535.777L408.263 513.044Z" fill="#EFEFED"/>
<path d="M502.912 527.907L511.216 554.445L537.78 562.655L515.098 578.749L515.49 606.554L493.187 589.96L466.853 598.931L475.753 572.582L459.09 550.302L486.898 550.631L502.912 527.907Z" fill="#EFEFED"/>
<path d="M597.575 542.758L605.866 569.306L632.43 577.518L609.748 593.599L610.14 621.406L587.837 604.827L561.503 613.776L570.403 587.434L553.74 565.17L581.548 565.482L597.575 542.758Z" fill="#EFEFED"/>
<path d="M692.225 557.61L700.516 584.158L727.08 592.379L704.398 608.461L704.79 636.272L682.487 619.662L656.167 628.628L665.053 602.279L648.376 580.032L676.198 580.343L692.225 557.61Z" fill="#EFEFED"/>
<path d="M394.683 599.642L402.974 626.191L429.538 634.401L406.856 650.499L407.248 678.294L384.945 661.695L358.625 670.666L367.511 644.301L350.848 622.054L378.656 622.366L394.683 599.642Z" fill="#EFEFED"/>
<path d="M489.333 614.494L497.624 641.032L524.187 649.269L501.506 665.352L501.898 693.159L479.595 676.547L453.274 685.518L462.161 659.171L445.497 636.907L473.305 637.218L489.333 614.494Z" fill="#EFEFED"/>
<path d="M583.983 629.344L592.274 655.893L618.837 664.103L596.155 680.2L596.548 707.991L574.244 691.411L547.924 700.377L556.81 674.03L540.147 651.755L567.955 652.077L583.983 629.344Z" fill="#EFEFED"/>
<path d="M678.632 644.208L686.923 670.762L713.487 678.972L690.805 695.049L691.197 722.86L668.894 706.266L642.574 715.232L651.46 688.874L634.784 666.619L662.605 666.932L678.632 644.208Z" fill="#EFEFED"/>
<path d="M381.091 686.23L389.382 712.784L415.945 720.995L393.264 737.088L393.656 764.894L371.353 748.288L345.033 757.254L353.919 730.907L337.264 708.643L365.063 708.97L381.091 686.23Z" fill="#EFEFED"/>
<path d="M475.74 701.097L484.031 727.63L510.595 735.856L487.913 751.937L488.305 779.744L466.002 763.15L439.682 772.114L448.568 745.756L431.905 723.508L459.713 723.82L475.74 701.097Z" fill="#EFEFED"/>
<path d="M570.39 715.95L578.681 742.482L605.245 750.709L582.563 766.791L582.955 794.613L560.652 778.003L534.332 786.968L543.218 760.62L526.568 738.361L554.363 738.668L570.39 715.95Z" fill="#EFEFED"/>
<path d="M665.039 730.801L673.33 757.348L699.894 765.559L677.212 781.652L677.604 809.448L655.301 792.852L628.981 801.818L637.867 775.487L621.217 753.207L649.012 753.534L665.039 730.801Z" fill="#EFEFED"/>
<path d="M1894.36 199.876L2041.23 725.21L1934.01 707.384L1800.58 230.09L1894.36 199.876Z" fill="#2A3D87"/>
<path d="M1976.72 173.328L2135.4 740.859L2041.23 725.211L1894.36 199.877L1976.72 173.328Z" fill="#2A3D87"/>
<path d="M1503.29 305.684L1596.96 283.453L1743 805.833L1661.97 873.216L1503.29 305.684Z" fill="#2A3D87"/>
<path d="M1692.84 260.677L1825.96 736.855L1743 805.834L1596.95 283.454L1692.84 260.677Z" fill="#2A3D87"/>
<path d="M1741.64 249.095L1800.58 230.091L1934.01 707.385L1873.51 697.326L1825.97 736.855L1692.84 260.677L1741.64 249.095Z" fill="#2A3D87"/>
<path d="M1880.7 238.397L1876.06 265.812L1850.85 277.54L1875.48 290.416L1878.85 318.021L1898.72 298.573L1926 303.914L1913.64 279L1927.15 254.696L1899.64 258.77L1880.7 238.397Z" fill="#EFEFED"/>
<path d="M1788.92 265.881L1784.28 293.296L1759.06 305.025L1783.71 317.911L1787.07 345.516L1806.94 326.053L1834.22 331.4L1821.85 306.483L1835.37 282.18L1807.86 286.237L1788.92 265.881Z" fill="#EFEFED"/>
<path d="M1697.12 293.347L1692.5 320.778L1667.27 332.507L1691.93 345.383L1695.28 372.988L1715.14 353.524L1742.45 358.865L1730.07 333.954L1743.58 309.647L1716.07 313.719L1697.12 293.347Z" fill="#EFEFED"/>
<path d="M1605.34 320.832L1600.7 348.264L1575.49 359.977L1600.14 372.868L1603.5 400.473L1623.36 381.02L1650.67 386.351L1638.3 361.44L1651.8 337.148L1624.31 341.189L1605.34 320.832Z" fill="#EFEFED"/>
<path d="M1905.83 322.374L1901.19 349.788L1875.98 361.502L1900.63 374.393L1903.98 401.998L1923.86 382.55L1951.16 387.877L1938.79 362.975L1952.29 338.657L1924.78 342.731L1905.83 322.374Z" fill="#EFEFED"/>
<path d="M1814.06 349.848L1809.41 377.263L1784.2 389.003L1808.84 401.878L1812.2 429.483L1832.08 410.02L1859.37 415.361L1847 390.451L1860.51 366.142L1833 370.215L1814.06 349.848Z" fill="#EFEFED"/>
<path d="M1722.28 377.327L1717.64 404.758L1692.43 416.47L1717.06 429.361L1720.43 456.968L1740.3 437.504L1767.58 442.845L1755.21 417.934L1768.73 393.626L1741.22 397.684L1722.28 377.327Z" fill="#EFEFED"/>
<path d="M1630.5 404.8L1625.86 432.232L1600.65 443.956L1625.29 456.83L1628.65 484.435L1648.52 464.987L1675.8 470.314L1663.43 445.403L1676.95 421.11L1649.44 425.168L1630.5 404.8Z" fill="#EFEFED"/>
<path d="M1930.98 406.342L1926.35 433.756L1901.13 445.48L1925.78 458.356L1929.14 485.961L1948.99 466.513L1976.29 471.844L1963.92 446.943L1977.44 422.641L1949.93 426.709L1930.98 406.342Z" fill="#EFEFED"/>
<path d="M1839.19 433.825L1834.57 461.241L1809.34 472.965L1834 485.855L1837.35 513.46L1857.21 493.998L1884.5 499.339L1872.14 474.428L1885.65 450.119L1858.14 454.177L1839.19 433.825Z" fill="#EFEFED"/>
<path d="M1747.41 461.295L1742.77 488.725L1717.56 500.449L1742.2 513.325L1745.56 540.93L1765.43 521.466L1792.73 526.813L1780.36 501.896L1793.87 477.594L1766.36 481.661L1747.41 461.295Z" fill="#EFEFED"/>
<path d="M1655.63 488.777L1650.99 516.208L1625.78 527.931L1650.42 540.807L1653.78 568.412L1673.65 548.964L1700.95 554.291L1688.59 529.38L1702.09 505.087L1674.58 509.134L1655.63 488.777Z" fill="#EFEFED"/>
<path d="M1864.35 517.788L1859.7 545.203L1834.49 556.943L1859.13 569.818L1862.49 597.423L1882.37 577.96L1909.65 583.307L1897.29 558.39L1910.8 534.087L1883.29 538.155L1864.35 517.788Z" fill="#EFEFED"/>
<path d="M1772.57 545.272L1767.93 572.703L1742.72 584.416L1767.35 597.301L1770.71 624.907L1790.58 605.443L1817.86 610.79L1805.5 585.874L1819.01 561.57L1791.5 565.628L1772.57 545.272Z" fill="#EFEFED"/>
<path d="M1680.77 572.739L1676.15 600.171L1650.92 611.899L1675.58 624.775L1678.93 652.38L1698.79 632.927L1726.08 638.258L1713.72 613.347L1727.23 589.055L1699.72 593.112L1680.77 572.739Z" fill="#EFEFED"/>
<path d="M1889.48 601.767L1884.84 629.183L1859.63 640.912L1884.27 653.798L1887.63 681.403L1907.5 661.944L1934.79 667.286L1922.43 642.37L1935.94 618.067L1908.42 622.124L1889.48 601.767Z" fill="#EFEFED"/>
<path d="M1797.7 629.234L1793.06 656.665L1767.85 668.394L1792.49 681.268L1795.85 708.875L1815.71 689.411L1843.02 694.752L1830.63 669.841L1844.16 645.533L1816.63 649.606L1797.7 629.234Z" fill="#EFEFED"/>
<path d="M1705.92 656.719L1701.28 684.149L1676.07 695.879L1700.71 708.755L1704.06 736.36L1723.93 716.906L1751.23 722.238L1738.86 697.327L1752.36 673.034L1724.86 677.076L1705.92 656.719Z" fill="#EFEFED"/>
<path d="M-373.22 17.4507C34.0171 252.452 503.669 377.084 973.658 377.084C1035 377.084 1096.35 374.966 1157.57 370.692C1687.81 333.551 2224.91 133.754 2644.08 -193.53C2652.72 -200.279 2654.25 -212.736 2647.5 -221.378C2640.77 -230.007 2628.3 -231.536 2619.67 -224.8C2207.36 97.2766 1677.03 294.639 1154.8 331.115C1094.51 335.336 1034.09 337.428 973.658 337.428C510.675 337.445 47.6479 214.554 -353.392 -16.9035C-362.88 -22.3812 -375.011 -19.1217 -380.484 -9.64046C-385.958 -0.145728 -382.709 11.9865 -373.22 17.4507Z" fill="#1E284E"/>
</g>
<defs>
<clipPath id="clip0_108_1758">
<rect width="1920" height="1080" fill="white"/>
</clipPath>
</defs>
</svg>
