<svg width="188" height="189" viewBox="0 0 188 189" fill="none" xmlns="http://www.w3.org/2000/svg">
<path d="M186 94.46C186 145.27 144.811 186.46 94 186.46C43.1887 186.46 2 145.27 2 94.46C2 43.6487 43.1888 2.45995 94 2.45995C144.811 2.45995 186 43.6487 186 94.46Z" fill="#0D2562" fill-opacity="0.97" stroke="black" stroke-width="4"/>
<path d="M62.4727 118.064L74.0636 124.555L55.5182 132.9L43 126.409V107.4L125.527 70.7728L113.473 63.8182L131.091 55.4728L144.536 62.4273V81.4364L62.4727 118.064Z" fill="#ED1E2C"/>
<path d="M93.9998 151.445L68.0361 138.464L85.1907 130.118L93.9998 134.755L104.663 130.118L120.427 138.464L93.9998 151.445Z" fill="#ED1E2C"/>
<path d="M129.7 133.364L95.3911 116.209L111.618 108.327L129.7 117.6V100.445L145 93.9546V126.409L129.7 133.364Z" fill="#ED1E2C"/>
<path d="M58.7636 87.9272L43 94.8818V61.9636L58.7636 55.009L93.0727 72.6272L76.3818 80.0454L58.7636 70.7727V87.9272Z" fill="#ED1E2C"/>
<path d="M85.6543 58.2545L68.0361 49.9091L93.9998 36L120.427 49.9091L102.809 58.2545L93.9998 54.5455L85.6543 58.2545Z" fill="#ED1E2C"/>
</svg>
