<svg width="188" height="188" viewBox="0 0 188 188" fill="none" xmlns="http://www.w3.org/2000/svg">
<path d="M2 94.0067C2 43.1956 43.1899 2.00003 94 2.00003C144.81 2.00003 186 43.1956 186 94.0067C186 144.804 144.81 186.007 94 186.007C43.1899 186.007 2 144.804 2 94.0067Z" fill="#0D2562" fill-opacity="0.97" stroke="black" stroke-width="4"/>
<path d="M137.811 57.4468C137.467 56.4335 137.056 56.1668 136.415 55.9135C135.012 55.3935 132.636 56.1801 132.636 56.1801C132.636 56.1801 48.5225 86.4201 43.7172 89.7668C42.6825 90.4868 42.3359 90.9135 42.1639 91.4068C41.3332 93.7801 43.9212 94.8335 43.9212 94.8335L65.6012 101.9C65.6012 101.9 66.4092 102.02 66.6972 101.833C71.6292 98.7135 116.319 70.5001 118.896 69.5535C119.303 69.4335 119.604 69.5668 119.524 69.8468C118.492 73.4735 79.6772 107.967 79.6772 107.967C79.6772 107.967 79.5292 108.153 79.4359 108.367L79.3852 108.34L77.3625 129.847C77.3625 129.847 76.5146 136.433 83.1026 129.847C87.7506 125.193 92.2479 121.3 94.4986 119.42C101.953 124.567 109.976 130.26 113.439 133.233C115.177 134.727 116.632 134.967 117.829 134.927C121.116 134.807 122.033 131.193 122.033 131.193C122.033 131.193 137.361 69.5001 137.873 61.2335C137.924 60.4201 137.993 59.9135 137.999 59.3535C138.008 58.5801 137.936 57.8068 137.811 57.4468Z" fill="#ED1E2C"/>
</svg>
